<svg height="71" viewBox="0 0 53 71" width="53" xmlns="http://www.w3.org/2000/svg"><g fill="none" transform="translate(12 15)"><path d="m24.6977879 2.72644164c-.3152221.14349693-.6567127.2630777-.9982033.23916155-.9982033-.04783231-1.1558144-.83706542-1.2083514-1.07622697 0-.02391615-.052537-.02391615-.0788055-.02391615-.4202961.38265847-.8931293.76531695-1.3922309 1.12405927v.02391616c.3940276.07174846.5779071.28699385.7092497.47832309.2889536.47832309.1838795 1.12405927-.0788055 1.55455006-.1050741.19132923-.3152221.28699385-.5516387.28699385-.052537 0-.1313426-.02391615-.1838796-.04783231-.4728331-.11958077-1.1295458-.55007155-1.1295458-1.07622696 0-.11958077.0788055-.40657463-.0262685-.38265847-.0788056 0-1.339694.76531695-2.0489437 1.12405927v.02391615c.2889536.09566462.4465646.2630777.5516387.40657463.2889536.45440694.210148 1.10014312 0 1.53063391-.052537.11958077-.1576111.23916154-.2889536.28699385-.1313426.04783231-.2889536.07174847-.4465647.02391616-.4728331-.16741309-1.0244718-.55007156-1.1558143-1.05231081-.052537-.14349693-.052537-.35874232.0262685-.57398771 0 0 0-.02391616-.0262685-.02391616-.7355183.31091001-1.5761105.62182002-2.4955083.93273004v.02391615c.1313425.07174846.2364166.14349693.3152221.2630777.3677591.40657463.3940276 1.0044785.3152221 1.41105313-.052537.2630777-.3152221.45440694-.6041757.43049079h-.0262685c-.4991017-.04783231-1.1295459-.28699386-1.4184995-.7414008-.1313425-.19132924-.2364166-.5261554-.052537-.93273003 0 0 0-.02391616-.0262685-.02391616-.4991017.14349693-1.0244718.2630777-1.5761105.38265848 0 0-.0262685.02391615 0 .02391615.2364166.19132924.3414906.40657463.3677591.59790387.0788055.5261554-.2626851 1.10014312-.6567127 1.43496928-.105074.09566462-.2626851.14349693-.4202961.14349693-.13134258 0-.26268512-.04783231-.36775915-.14349693-.36775912-.31091001-.73551824-.86098157-.65671271-1.38713697.02626851-.09566462.05253702-.23916155.13134254-.35874232 0 0 0-.02391616-.02626851-.02391616-.73551823.11958078-1.47103647.2152454-2.25909172.2630777.13134254.09566462.21014807.2152454.26268508.31091002.26268509.47832309.13134255 1.12405927-.13134254 1.55455005-.10507403.16741309-.3152221.28699383-.52537017.26307771-.07880552 0-.13134254-.02391616-.21014806-.04783231-.47283315-.19132924-.97193481-.59790387-1.07700885-1.12405928-.05253701-.21524539-.0262685-.5261554.23641658-.83706541v-.02391616c-.78805525.02391616-1.62864752.04783231-2.46923979 0 .18387956-.11958077.36775912-.2630777.52537017-.38265847 9.71934813.19132924 17.78378023-4.23315939 19.93779783-7.58142105.1050741.07174846.2364166.14349693.3677592.21524539-.2364166.33482617-.5779072.71748464-.5516387.76531695.052537.07174847 1.3659624-.14349692 1.707453 1.12405928.052537.2630777-.052537.50223925-.2889536.62182002z" fill="#cc1236"/><path d="m22.0848872 18.9077253c.0506976.167382.2281393.7811159.0506976 1.1716738-.2534881.55794-.8618594.8648069-1.3434868.9206009-.0506976 0-.126744 0-.1774416 0-.2281393-.055794-.3802321-.27897-.4309297-.5021459-.1774417-.8648069.3041857-1.6180258.4562785-1.8133047.0253488-.027897 0-.055794-.0253488-.055794-.8872083-.167382-1.7490677-.362661-2.5855783-.5579399-.0253488 0-.0253488 0-.0253488.0278969.0760464.27897.3041857 1.5343348-.4309298 2.0085837-.126744.083691-.3295344.139485-.4562785.083691-.0506976-.027897-.1013952-.055794-.1520928-.083691-.4309297-.3068669-.8618595-.8927038-.8872083-1.5343347 0-.251073.0760465-.5858369.3802321-.8927039.0253488-.027897.0253488-.083691-.0253488-.083691-.5830225-.167382-1.1660451-.3626609-1.7237188-.5579399-.0253489 0-.0253489 0-.0253489.027897.0506977.167382.1520929.8927039-.1774416 1.2274678-.3802321.362661-.7097666.5579399-1.3434868.5300429-.0760464 0-.1774416-.027897-.253488-.027897-.3041857-.055794-.4816274-.3626609-.4562786-.6695279.0506976-.6137339.3295345-1.2553648.7604642-1.5343347.0253489-.027897.0253489-.083691 0-.083691-.8111618-.334764-1.5969748-.6695279-2.357439-1.0600858-.0253488-.027897-.0760464.0278969-.0506976.0557939.1013952.334764.0760464.613734 0 .8090129-.2027905.5858369-.7604642.9763949-1.24209157 1.0879829-.05069761.0278969-.10139522.0278969-.15209284.0278969-.22813926 0-.43092972-.1673819-.50697614-.4184549-.17744165-.5300429-.17744165-1.3111588.15209284-1.8133047.10139523-.139485.25348807-.306867.48162734-.3905579.05069761-.027897.05069761-.083691 0-.083691-.86185944-.474249-1.64767246-1.0042919-2.35743905-1.5343348-.02534881-.027897-.07604642 0-.07604642.055794 0 .195279-.02534881.3626609-.07604643.5021459-.20279045.5858369-.78581301.9484979-1.26744035 1.0600859-.05069761 0-.10139522.0278969-.15209284.0278969-.22813926 0-.43092972-.1952789-.50697614-.4184549-.15209284-.5300429-.15209284-1.2832618.17744165-1.7854077.15209284-.195279.32953449-.334764.55767375-.4184549.05069762 0 .05069762-.055794.02534881-.083691-.55767375-.502146-1.03930109-1.0042919-1.444882-1.5343348-.0253488-.027897-.07604642-.027897-.07604642.027897-.02534881.3068669-.10139523.5579399-.27883688.7811159-.27883687.3068669-.70976659.4742489-1.21674273.4463519-.15209284 0-.30418569-.027897-.43092972-.083691-.27883688-.083691-.45627853-.3905579-.40558091-.6974249.15209284-1.33905577 1.39418438-1.53433474 1.67302126-1.53433474.02534881 0 .02534881-.02789699.02534881-.05579399-.22813927-.39055794-.43092972-.78111588-.58302256-1.19957081.12674403-.08369099.25348807-.19527897.35488329-.27896996 1.74906769 5.1051502 10.95068465 9.7918455 21.01416105 10.6566524.1774416.1673819.3548833.3347639.5069761.5300429-.9379059-.055794-1.9011605-.167382-2.8137176-.306867-.0760464-.027897-.1013952 0-.1013952.027897z" fill="#e3de00"/><path d="m26.9587295 23.554007c-.0753281.2874564-.2762032.5226481-.5775158.4965156h-.0251094c-.4770784-.0261324-1.104813-.261324-1.3810162-.7578397-.0502188-.1045296-.1004376-.2351916-.1506564-.3658536 0-.0261324-.0502187-.0522648-.0753281-.0261324-.4017502.6010453-.8537191 1.2020906-1.3559069 1.7770034-.0251093.0261325 0 .0783973.0251094.0783973.3264221.0261324 1.3056881.2351916 1.4563444 1.3066202.0502188.2874564-.1004375.5487805-.326422.6533101-.2762032.130662-.6026253.1829268-.8788285.1829268-.6779534-.0261324-1.104813-.6533101-1.1801411-1.2020906 0-.0261324-.0251094-.0261324-.0502188-.0261324-.652844.6533101-1.3810162 1.2543554-2.1594072 1.8292683-.0251094.0261324-.0251094.0783972.0251094.0783972.326422.1045296.5021877.3397213.6026252.5226481.2510939.4965157.1506564 1.1759582-.0753281 1.6202091-.1004376.1829268-.2510939.3397212-.451969.3658536-.1004375 0-.200875 0-.2762032-.0522648-.4519689-.1829268-.9541567-.6533101-1.0545942-1.2020906-.0251094-.1045296-.0251094-.2351916-.0251094-.3658536 0-.0522649-.0502188-.0783973-.0753281-.0522649-.6528441.4181185-1.3307975.8101046-2.0338603 1.1759582-.0502188.0261324-.0502188.0783972 0 .1045297.2008751.0783972.3515314.2090592.4770783.391986.3013127.4442509.3013127 1.097561.2008751 1.5679443-.0753281.261324-.326422.4703832-.5775159.4703832-.0251093 0-.0502187 0-.0753281 0-.4770783-.1045296-1.0545942-.4442508-1.2554693-.9668989-.0753282-.2090592-.1255469-.4965157-.0251094-.8101045 0-.0522649-.0251094-.0783973-.0502188-.0522649-.5524065.2351917-1.1048129.4703833-1.6823288.705575-.0251094.0261324-.0251094.0522648 0 .0783972.326422.2090592.4268595.4965157.4770783.7055749.1004376.5749129-.2259845 1.2020906-.6026252 1.5679442-.1004376.1045297-.2510939.1829269-.4268596.1567945-.1255469 0-.2259845-.0783973-.326422-.1306621-.7030628-.4442508-.6277347-1.5940766-.5524065-1.8554007 0-.0261324 0-.0261324-.0251094-.0261324-.7281722.2351917-1.4814538.4442509-2.2347353.6271777-.0251094 0-.0251094.0261324-.0251094.0522648.1757657.2090593.7532816 1.1236934.2259844 1.933798-.0753281.130662-.200875.2090592-.326422.2351916-.0753281 0-.1255469 0-.20087506 0-.47707833-.1045296-1.0545942-.4181185-1.28057867-.966899-.07532816-.2090592-.15065632-.4965156 0-.8623693 0-.0261324 0-.0522648-.05021878-.0522648-.55240648.1045296-1.10481297.1829268-1.65721946.261324-.05021877 0-.07532816.0783972-.02510939.1045297.22598447.2874564.27620325.6010452.22598447.8101045-.07532815.5749129-.57751587 1.0714286-1.02948482 1.3066202-.07532815.0522648-.1757657.0522648-.27620324.0522648-.1757657 0-.3515314-.1045296-.45196895-.2874564-.25109385-.4181185-.37664078-1.2543554-.07532815-1.8031359 0-.0261324 0-.0522648-.02510939-.0522648-1.07970359.0783972-2.18451657.1045296-3.26422016.0522648v-.0261324c.15065632-.1306621.30131263-.2613241.47707833-.4181185 10.42039517.261324 20.81568087-5.3310105 23.22618187-12.4651568.125547.1045296.2259845.2090592.3515314.3135889-.1506563.4442508-.3515314.8623693-.5524064 1.3066202 0 .0261324 0 .0522648.0251093.0522648.2008751-.0261324.8286098-.0522648 1.104813.3397212.2762033.4965157.451969 1.1236934.326422 1.5418119z" fill="#e3de00"/><path d="m36.9340465 40.6911765c-.0255056 0-.0255056.0245098-.0255056.0490196.3315728.367647.3315728.7107843.2805616.9558823-.127528.5392157-.63764.9558824-1.0967408 1.127451-.127528.0490196-.2295504.0490196-.3570784.0245098-.1530336-.0490196-.3060672-.1470588-.3825839-.2941176-.2295504-.4166667-.3315728-1.0294118-.1020224-1.4950981 0-.0245098 0-.0490196-.0255056-.0490196-.7141568.122549-1.4283136.2205883-2.1424704.3186275-.0255056 0-.0255056.0245098 0 .0490196.2295504.1470588.3315728.3431372.382584.5147059.1785392.5147058-.0510112 1.1274509-.3570784 1.495098-.1020224.1470588-.2805615.2205882-.4846063.2205882-.1020224 0-.2040448-.0245098-.2805616-.0735294-.4335952-.2696078-.892696-.7843137-.892696-1.3235294 0-.1715686.0255056-.4166667.2295504-.6372549.0255056-.0245098 0-.0490196-.0255056-.0490196-.7141568.0735294-1.4283135.1470588-2.1424703.1960784-.0255056 0-.0255056.0245098-.0255056.0490196.1020224.1470589.3570784.6372549.2295504 1.1029412-.127528.5392157-.765168.8333334-1.2497744.9558824-.0510112.0245098-.1020224.0245098-.1530336.0245098-.2295503 0-.4080895-.1715687-.5101119-.3676471-.3060672-.7107843.0765168-1.4215686.2040448-1.617647 0-.0245098 0-.0490196-.0255056-.0490196-.9182016.0490196-1.8619088.0980392-2.7801103.0980392-.0255056 0-.0255056.0245098-.0255056.0245098.1530336.1715686.6376399 1.0294117.2040448 1.7647059-.0765168.122549-.255056.2696078-.4080896.2941176-.0765168 0-.1530336 0-.2295504-.0245098-.4846064-.1470588-1.1222464-.5147059-1.2497744-1.0539216-.1275279-.5147059.1530336-.8823529.2295504-.9803921 0 0 0-.0245098-.0255056-.0245098-.6121343 0-1.2497743-.0245098-1.8619087-.0490196-.1785392 0-.382584-.0245098-.5611232-.0245098-.0255056 0-.0255056.0245098-.0255056.0245098.127528.1715686.4335952.8578431.2295504 1.25-.2295504.490196-.8671903.7598039-1.3517967.8088235-.0255056 0-.0765168 0-.1020224 0-.255056 0-.4335952-.1960784-.5356176-.4411765-.3315728-.9803921.2805616-1.5196078.5356176-1.6911765.0255056-.0245098.0255056-.0490196-.0255056-.0490196-1.020224-.0735294-2.0149423-.1715686-3.0096607-.3186274-.0255056 0-.0510112.0245098-.0255056.0490196.1785392.1715686.255056.3676471.2805616.5147059.1020224.5147059-.1785392 1.0784314-.510112 1.4215686-.0765168.0735294-.1785392.1470588-.3060672.1715686-.1785392.0245098-.3570783 0-.4846063-.122549-.4080896-.3186274-.765168-.8823529-.7141568-1.4215686.0255056-.2205882.127528-.5147059.4846064-.7352941.0255056-.0245098.0255056-.0490196 0-.0490196-.765168-.1225491-1.530336-.2696079-2.2699983-.4166667-.0255056 0-.0510112.0245098-.0255056.0490196.1785392.3431373.127528.6372549.0255056.8578431-.2040448.5147059-.7906736.8333334-1.27528.9313726-.0510112 0-.1020224.0245098-.1530336.0245098-.2295504 0-.4335952-.1715686-.510112-.3676471-.3315727-.8088235.1785392-1.5441176.382584-1.740196.0255056-.0245098 0-.0735295-.0255056-.0735295-.8671903-.2205882-1.6833695-.4411764-2.49954867-.6862745-.0255056 0-.05101119.0245098-.0255056.0490196.1020224.2205883.127528.4411765.1020224.5882353-.0765168.5392157-.56112318.9803922-.99471836 1.2009804-.0765168.0490196-.17853919.0490196-.28056159.0490196-.17853919 0-.35707838-.0980392-.45910078-.245098-.28056159-.4166667-.45910078-1.0784314-.20404479-1.5686275.0765168-.1715686.20404479-.3431372.48460638-.4656862.0255056 0 .0255056-.0490196 0-.0490196-.84168476-.2941177-1.65786393-.6372549-2.3975263-.9803922-.0255056 0-.0510112 0-.0255056.0245098.127528.3921569 0 .7107843-.12752799.9068628-.30606719.4411764-.94370716.6617647-1.45381914.6617647h-.0255056c-.28056159 0-.51011198-.2205883-.53561758-.4901961-.0510112-.4166667.0510112-1.0294118.43359518-1.4215686.127528-.1225491.28056159-.2205883.45910078-.2696079.0255056 0 .0255056-.0490196 0-.0490196-.61213437-.3186274-1.17325755-.6617647-1.68336953-1.0294118-.17853919-.122549-.33157278-.245098-.48460638-.367647-.0255056-.0245098-.05101119 0-.05101119.0245098 0 .1470588-.0255056.2696078-.0510112.367647-.17853919.5147059-.76516797.8578432-1.22426875.9803922-.0510112.0245098-.1020224.0245098-.17853919.0245098-.22955039 0-.43359519-.1470588-.51011198-.3676471-.1785392-.4656862-.20404479-1.1519607.12752799-1.5931372.127528-.1715686.35707839-.3676471.73966237-.3921569.0255056 0 .0510112-.0245098.0255056-.0490196-.35707839-.3921568-.58662877-.7598039-.73966237-1.1029412.127528-.0980392.22955039-.1715686.35707839-.2696078.22955039.7107843 1.02022395 1.5441176 2.2444927 2.4019608 3.06067188 2.1323529 7.9832525 3.7990196 13.543473 4.6078431 6.9885341 1.004902 14.7677418.6372549 22.5724551-1.127451-.0765168.1715687-.1530336.3186275-.255056.4901961-.5611232.0735294-1.1987631.1960785-1.8108975.3186275z" fill="#cc1236"/></g></svg>