<svg height="71" viewBox="0 0 53 71" width="53"
   xmlns="http://www.w3.org/2000/svg">
   <g fill="none">
      <path d="m51.91767 54.32049c-5.00062-1.00542-9.23396-3.175-12.80583-6.32354 5.13292-1.00542 9.86896-3.86292 10.34521-6.64105.0265-.21166-.10584-.42333-.3175-.47625-4.86834-.97895-8.94292-3.20145-12.30313-6.42937 4.57729-.76729 8.89-3.30729 9.31334-5.79438.0265-.1852-.0794-.37041-.26459-.39687-3.70416-.74083-6.85271-2.32833-9.525-4.60375 3.57188-.82021 6.74688-2.831039 7.06438-4.788959.0265-.15875-.0794-.3175-.23813-.34396-8.22854-1.64041-13.36146-8.09625-16.13958-17.25083-.21167-.66146-1.13771-.66146-1.34937 0-2.75167 9.18104-7.85813 15.63687-16.08667 17.30375-.15875.0265-.26458.18521-.23813.34396.34396 1.95791 3.51896 3.942289 7.09084 4.762499-2.67229 2.27541-5.82084 3.86291-9.49854 4.63021-.18521.0265-.3175.21166-.26459.39687.42334 2.48708 4.7625 5.00063 9.33979 5.76792-3.33375 3.25437-7.40833 5.47687-12.27666 6.48229-.21167.0529-.37042.23812-.3175.47625.47625 2.80458 5.21229 5.63562 10.34521 6.61458-3.54542 3.14854-7.77875 5.31813-12.77938 6.35-.238122.0529-.423332.29104-.370422.52917.820212 4.73604 12.435422 9.55146 20.214172 7.24958.0794-.0265.15875-.0529.26458-.0794v7.91104h11.24479v-7.77875c7.77875 2.14312 19.15584-2.67229 19.97605-7.35542 0-.26458-.18521-.50271-.42334-.55562z" fill="#633"/>
      <path d="m52.34101 54.87611c-.82021 4.7625-12.56771 9.65729-20.34646 7.24959-2.30188-.71438-4.25979-2.06375-5.50333-4.28625-1.24355 2.24895-3.25438 3.62479-5.63563 4.33916-7.77875 2.32834-19.39396-2.51354-20.214172-7.24958-.0529-.23813.1323-.47625.370422-.52917 5.00063-1.03187 9.23396-3.20146 12.77938-6.35-5.15938-.97896-9.86896-3.81-10.34521-6.61458-.0265-.21167.10583-.42333.3175-.47625 4.86833-1.00542 8.94291-3.22792 12.27666-6.48229-4.57729-.76729-8.91645-3.28084-9.33979-5.76792-.0265-.18521.0794-.37042.26459-.39687 3.70416-.74084 6.8527-2.3548 9.49854-4.63021-3.57188-.82021-6.74688-2.804589-7.09084-4.762499-.0265-.15875.0794-.3175.23813-.34396 8.22854-1.66688 13.335-8.14917 16.08667-17.30375.21166-.66146 1.1377-.66146 1.34937 0 2.77812 9.15458 7.91104 15.61042 16.13958 17.25083.15875.0265.26459.18521.23813.34396-.34396 1.95792-3.4925 3.968749-7.06438 4.788959 2.67229 2.27542 5.82084 3.86292 9.525 4.60375.18521.0265.3175.21167.26459.39687-.42334 2.48709-4.73605 5.02709-9.31334 5.79438 3.36021 3.22792 7.40834 5.45042 12.30313 6.42937.21166.0529.37041.23813.3175.47625-.47625 2.80459-5.18584 5.66209-10.34521 6.64105 3.57187 3.12208 7.80521 5.31812 12.80583 6.32354.29104.0794.44979.3175.42334.55562z" fill="#029939"/>
   </g>
</svg>